# xmcd
#
# Track frame offsets: 
#        150
#        12677
#        29492
#        40673
#        54621
#        74474
#        88093
#        102129
#        116224
#        133458
#        145758
#        152344
#        165541
#        179153
#        198291
#
# Disc length: 3028 seconds
#
# Revision: 0
# Processed by: cddbd v1.5.2PL0 Copyright (c) Steve Scherf et al.
# Submitted via: ExactAudioCopy v0.95b4
#
DISCID=da0bd20f
DTITLE=Johnny Mastro and Mama's Boys - Take me to your maker
DYEAR=2007
DGENRE=Blues
TTITLE0=Angel Rollon
TTITLE1=Down in NO
TTITLE2=CFB
TTITLE3=Take your time
TTITLE4=8ball
TTITLE5=Wonder Boogie
TTITLE6=Ghetto woman
TTITLE7=Shade your woman
TTITLE8=Demon's Blues
TTITLE9=What have I done wrong
TTITLE10=Bottle gone boogie
TTITLE11=Throwdown
TTITLE12=Changes comin' down
TTITLE13=Lonesome Whistle
TTITLE14=One day (Live Radio 6 session)
EXTD=
EXTT0=
EXTT1=
EXTT2=
EXTT3=
EXTT4=
EXTT5=
EXTT6=
EXTT7=
EXTT8=
EXTT9=
EXTT10=
EXTT11=
EXTT12=
EXTT13=
EXTT14=
PLAYORDER=
